<svg xmlns="http://www.w3.org/2000/svg" viewBox="0 0 215 215" id="kalash">
  <path fill="#e25047" d="M127.076 74.634q0 1.414-.062 2.8a46.039 46.039 0 0 0-12.324 7.37 53.947 53.947 0 0 0-8.033-19.087 1.781 1.781 0 0 0-2.96 0 53.944 53.944 0 0 0-8.033 19.087 46.156 46.156 0 0 0-12.325-7.372 62.44 62.44 0 0 1-.06-2.798c0-15.905 12.867-29.502 18.875-34.98a4.483 4.483 0 0 1 6.047 0c6.007 5.478 18.875 19.075 18.875 34.98Zm0 0"></path>
  <path fill="#e25047" d="M111.497 58.558a50.64 50.64 0 0 0-4.942-9.297 92.716 92.716 0 0 0-1.378-10.78c-.094.474-.167.948-.25 1.422a48.666 48.666 0 0 0-8.788 8.982A52.456 52.456 0 0 0 89.7 59.8a40.556 40.556 0 0 0-3.256 12.353l-.099 1.604a11.035 11.035 0 0 0-.029 1.603c.068 1.073.068 2.136.195 3.193.187 1.056.34 2.105.557 3.134.273 1.017.554 2.028.881 3.023.077-1.054.108-2.093.13-3.126l.233-3.052c.09-1.006.274-2.006.403-2.996.135-.99.406-1.966.584-2.943a64.137 64.137 0 0 1 3.784-11.33 109.892 109.892 0 0 1 5.471-10.773c1.997-3.547 4.205-6.992 6.374-10.587-.56 3.186-.894 6.371-1.145 9.557a50.522 50.522 0 0 0-4.804 9.096 52.456 52.456 0 0 0-3.342 12.225 40.557 40.557 0 0 0 .107 12.775l.327 1.573a11.04 11.04 0 0 0 .393 1.554c.348 1.017.628 2.044 1.029 3.03.458.97.881 1.94 1.36 2.877.532.91 1.069 1.81 1.646 2.685a61.498 61.498 0 0 0-.697-3.05l-.578-3.006c-.177-.995-.263-2.007-.399-2.996-.13-.992-.125-2.005-.21-2.994a64.13 64.13 0 0 1 .67-11.925 109.876 109.876 0 0 1 2.445-11.833c.557-2.21 1.187-4.409 1.834-6.623q-.23 4.396-.23 8.793-.004 5.79.394 11.58a95.326 95.326 0 0 0 1.45 11.582 95.336 95.336 0 0 0 1.45-11.581q.405-5.79.393-11.581-.002-4.676-.263-9.353c.706 2.403 1.396 4.785 1.998 7.181a108.705 108.705 0 0 1 2.44 11.835 64.544 64.544 0 0 1 .665 11.924c-.087.99-.078 2.003-.21 2.993-.136.99-.22 2.003-.399 2.996l-.576 3.007a61.1 61.1 0 0 0-.694 3.051 56.79 56.79 0 0 0 1.648-2.684c.48-.936.905-1.907 1.363-2.877.4-.986.682-2.012 1.03-3.03a11.16 11.16 0 0 0 .393-1.554l.327-1.574a40.417 40.417 0 0 0 .102-12.775 52.7 52.7 0 0 0-3.347-12.224Z"></path>
  <path fill="#e25047" d="m124.016 73.757-.099-1.604a40.419 40.419 0 0 0-3.261-12.352 52.701 52.701 0 0 0-6.444-10.913 48.95 48.95 0 0 0-8.785-8.986c2.172 3.593 4.384 7.037 6.38 10.587a108.724 108.724 0 0 1 5.466 10.776 64.545 64.545 0 0 1 3.779 11.33c.176.976.45 1.952.583 2.943.13.99.316 1.989.404 2.995l.235 3.052c.023 1.032.054 2.072.133 3.126.328-.995.61-2.006.884-3.023.216-1.03.37-2.078.559-3.134.126-1.057.128-2.12.195-3.194a11.142 11.142 0 0 0-.029-1.603Z"></path>
  <path fill="#e25047" d="M111.497 58.558a50.64 50.64 0 0 0-4.942-9.297 92.716 92.716 0 0 0-1.378-10.78c-.094.474-.167.948-.25 1.422a48.666 48.666 0 0 0-8.788 8.982A52.456 52.456 0 0 0 89.7 59.8a40.556 40.556 0 0 0-3.256 12.353l-.099 1.604a11.035 11.035 0 0 0-.029 1.603c.068 1.073.068 2.136.195 3.193.187 1.056.34 2.105.557 3.134.273 1.017.554 2.028.881 3.023.077-1.054.108-2.093.13-3.126l.233-3.052c.09-1.006.274-2.006.403-2.996.135-.99.406-1.966.584-2.943a64.137 64.137 0 0 1 3.784-11.33 109.892 109.892 0 0 1 5.471-10.773c1.997-3.547 4.205-6.992 6.374-10.587-.56 3.186-.894 6.371-1.145 9.557a50.522 50.522 0 0 0-4.804 9.096 52.456 52.456 0 0 0-3.342 12.225 40.557 40.557 0 0 0 .107 12.775l.327 1.573a11.04 11.04 0 0 0 .393 1.554c.348 1.017.628 2.044 1.029 3.03.458.97.881 1.94 1.36 2.877.532.91 1.069 1.81 1.646 2.685a61.498 61.498 0 0 0-.697-3.05l-.578-3.006c-.177-.995-.263-2.007-.399-2.996-.13-.992-.125-2.005-.21-2.994a64.13 64.13 0 0 1 .67-11.925 109.876 109.876 0 0 1 2.445-11.833c.557-2.21 1.187-4.409 1.834-6.623q-.23 4.396-.23 8.793-.004 5.79.394 11.58a95.326 95.326 0 0 0 1.45 11.582 95.336 95.336 0 0 0 1.45-11.581q.405-5.79.393-11.581-.002-4.676-.263-9.353c.706 2.403 1.396 4.785 1.998 7.181a108.705 108.705 0 0 1 2.44 11.835 64.544 64.544 0 0 1 .665 11.924c-.087.99-.078 2.003-.21 2.993-.136.99-.22 2.003-.399 2.996l-.576 3.007a61.1 61.1 0 0 0-.694 3.051 56.79 56.79 0 0 0 1.648-2.684c.48-.936.905-1.907 1.363-2.877.4-.986.682-2.012 1.03-3.03a11.16 11.16 0 0 0 .393-1.554l.327-1.574a40.417 40.417 0 0 0 .102-12.775 52.7 52.7 0 0 0-3.347-12.224Z"></path>
  <path fill="#e25047" d="m124.016 73.757-.099-1.604a40.419 40.419 0 0 0-3.261-12.352 52.701 52.701 0 0 0-6.444-10.913 48.95 48.95 0 0 0-8.785-8.986c2.172 3.593 4.384 7.037 6.38 10.587a108.724 108.724 0 0 1 5.466 10.776 64.545 64.545 0 0 1 3.779 11.33c.176.976.45 1.952.583 2.943.13.99.316 1.989.404 2.995l.235 3.052c.023 1.032.054 2.072.133 3.126.328-.995.61-2.006.884-3.023.216-1.03.37-2.078.559-3.134.126-1.057.128-2.12.195-3.194a11.142 11.142 0 0 0-.029-1.603Z"></path>
  <path fill="#299ccc" d="M114.69 84.804a37.427 37.427 0 0 0-2.222 2.046 74.419 74.419 0 0 0-7.29 8.426 74.9 74.9 0 0 0-7.291-8.426 37.088 37.088 0 0 0-2.223-2.046 53.944 53.944 0 0 1 8.034-19.087 1.781 1.781 0 0 1 2.96 0 53.947 53.947 0 0 1 8.032 19.087Zm0 0"></path>
  <path fill="#efca2b" d="M100.227 89.193a53.945 53.945 0 0 1 8.034-19.087 1.772 1.772 0 0 1 .705-.605 55.322 55.322 0 0 0-2.309-3.784 1.781 1.781 0 0 0-2.96 0 53.944 53.944 0 0 0-8.033 19.087 37.104 37.104 0 0 1 2.223 2.046c2.636 2.623 3.1 2.987 2.34 2.343Z"></path>
  <path fill="#299ccc" d="M139.525 76.372c-.923 4.678-3.684 15.019-11 23.294h-26.292a68.883 68.883 0 0 1 10.235-12.816c8.5-8.498 19.967-11.58 24.967-12.57a1.778 1.778 0 0 1 2.09 2.092Zm0 0"></path>
  <path fill="#efca2b" d="M132.504 109.91H77.85L63.53 125.934a21.82 21.82 0 0 0 0 29.089l7.816 8.744a21.825 21.825 0 0 0 16.27 7.278h35.125a21.825 21.825 0 0 0 16.27-7.278l7.816-8.744a21.82 21.82 0 0 0 0-29.089Zm0 0"></path>
  <path fill="#299ccc" d="M109.514 161.209a21.825 21.825 0 0 1-16.27-7.278l-7.816-8.744a21.82 21.82 0 0 1 0-29.09l5.53-6.186H77.852L63.53 125.933a21.82 21.82 0 0 0 0 29.09l7.816 8.743a21.825 21.825 0 0 0 16.27 7.278h35.125a21.825 21.825 0 0 0 16.27-7.278l2.286-2.557Z"></path>
  <path fill="#bc312e" d="M81.529 171.044h47.297a4.167 4.167 0 0 1 4.167 4.167v1.716a4.167 4.167 0 0 1-4.167 4.166H81.53a4.167 4.167 0 0 1-4.167-4.166v-1.716a4.167 4.167 0 0 1 4.167-4.167Zm0 0"></path>
  <path fill="#1084ad" d="M105.361 78.252c.295 1.947.49 3.895.738 5.843q.323 2.922.553 5.844c.079.974.225 1.948.35 2.922a12.737 12.737 0 0 1 .019 2.921 18.992 18.992 0 0 1-.547 2.922 12.863 12.863 0 0 1-1.113 2.922h-.369a12.862 12.862 0 0 1-1.112-2.922 18.967 18.967 0 0 1-.547-2.922 12.712 12.712 0 0 1 .019-2.921c.124-.974.271-1.948.35-2.922q.23-2.922.553-5.844c.248-1.948.443-3.896.737-5.843Z"></path>
  <path fill="#e25047" d="m119.46 138.607-.217-.013a225.897 225.897 0 0 0-7.033-.323c-1.583-.042-3.166-.05-4.75-.066-.042-4.14-.185-8.279-.454-12.418.823-.055 1.647-.105 2.47-.17a162.03 162.03 0 0 0 4.299-.376c1.433-.156 2.865-.27 4.298-.463a99.345 99.345 0 0 0 4.299-.593 99.438 99.438 0 0 0-4.299-.593c-1.433-.192-2.865-.307-4.298-.463-1.433-.15-2.866-.264-4.299-.375a246.05 246.05 0 0 0-4.298-.296 1.616 1.616 0 0 0-1.71 1.494l-.018.233c-.342 4.674-.508 9.348-.556 14.022-1.583.016-3.166.025-4.75.07q-2.637.087-5.275.229a235.46 235.46 0 0 0-.57-7.739l-.51-4.855c-.2-1.618-.403-3.237-.677-4.855-.275 1.618-.478 3.237-.678 4.855l-.51 4.855q-.447 4.855-.69 9.71a1.778 1.778 0 0 0 1.66 1.864l.217.014c2.345.151 4.69.245 7.033.323 1.583.045 3.166.054 4.75.07.017 1.959.047 3.917.118 5.876.064 2.179.188 4.358.33 6.538a218.87 218.87 0 0 0-6.762.546c-1.433.158-2.865.272-4.298.465-1.433.172-2.866.36-4.299.597 1.433.236 2.866.424 4.299.596 1.432.194 2.865.308 4.298.466 2.866.282 5.732.499 8.597.672a1.625 1.625 0 0 0 1.719-1.508l.016-.226c.19-2.716.351-5.431.432-8.146.07-1.958.1-3.916.118-5.874 1.583-.015 3.166-.025 4.748-.067q2.635-.087 5.27-.227c.151 2.577.333 5.155.57 7.732l.512 4.855c.202 1.618.405 3.237.682 4.855.275-1.618.48-3.237.68-4.855l.513-4.855q.446-4.855.69-9.71a1.785 1.785 0 0 0-1.666-1.87Z"></path>
  <circle cx="98.082" cy="132.744" r="2.102" fill="#e25047"></circle>
  <circle cx="112.723" cy="132.744" r="2.102" fill="#e25047"></circle>
  <circle cx="98.082" cy="148.423" r="2.102" fill="#e25047"></circle>
  <circle cx="112.723" cy="148.423" r="2.102" fill="#e25047"></circle>
  <path fill="#299ccc" d="M109.514 161.209a21.825 21.825 0 0 1-16.27-7.278l-7.816-8.744a21.82 21.82 0 0 1 0-29.09l5.53-6.186H77.852L63.53 125.933a21.82 21.82 0 0 0 0 29.09l7.816 8.743a21.825 21.825 0 0 0 16.27 7.278h35.125a21.825 21.825 0 0 0 16.27-7.278l2.286-2.557Z"></path>
  <path fill="#e25047" d="m119.46 138.607-.217-.013a225.897 225.897 0 0 0-7.033-.323c-1.583-.042-3.166-.05-4.75-.066-.042-4.14-.185-8.279-.454-12.418.823-.055 1.647-.105 2.47-.17a162.03 162.03 0 0 0 4.299-.376c1.433-.156 2.865-.27 4.298-.463a99.345 99.345 0 0 0 4.299-.593 99.438 99.438 0 0 0-4.299-.593c-1.433-.192-2.865-.307-4.298-.463-1.433-.15-2.866-.264-4.299-.375a246.05 246.05 0 0 0-4.298-.296 1.616 1.616 0 0 0-1.71 1.494l-.018.233c-.342 4.674-.508 9.348-.556 14.022-1.583.016-3.166.025-4.75.07q-2.637.087-5.275.229a235.46 235.46 0 0 0-.57-7.739l-.51-4.855c-.2-1.618-.403-3.237-.677-4.855-.275 1.618-.478 3.237-.678 4.855l-.51 4.855q-.447 4.855-.69 9.71a1.778 1.778 0 0 0 1.66 1.864l.217.014c2.345.151 4.69.245 7.033.323 1.583.045 3.166.054 4.75.07.017 1.959.047 3.917.118 5.876.064 2.179.188 4.358.33 6.538a218.87 218.87 0 0 0-6.762.546c-1.433.158-2.865.272-4.298.465-1.433.172-2.866.36-4.299.597 1.433.236 2.866.424 4.299.596 1.432.194 2.865.308 4.298.466 2.866.282 5.732.499 8.597.672a1.625 1.625 0 0 0 1.719-1.508l.016-.226c.19-2.716.351-5.431.432-8.146.07-1.958.1-3.916.118-5.874 1.583-.015 3.166-.025 4.748-.067q2.635-.087 5.27-.227c.151 2.577.333 5.155.57 7.732l.512 4.855c.202 1.618.405 3.237.682 4.855.275-1.618.48-3.237.68-4.855l.513-4.855q.446-4.855.69-9.71a1.785 1.785 0 0 0-1.666-1.87Z"></path>
  <circle cx="98.082" cy="132.744" r="2.102" fill="#e25047"></circle>
  <circle cx="112.723" cy="132.744" r="2.102" fill="#e25047"></circle>
  <circle cx="98.082" cy="148.423" r="2.102" fill="#e25047"></circle>
  <circle cx="112.723" cy="148.423" r="2.102" fill="#e25047"></circle>
  <path fill="#bc312e" d="M95.299 155.839c-1.006.1-2.012.198-3.017.334-1.433.172-2.866.36-4.299.597 1.433.236 2.866.424 4.299.596 1.432.194 2.865.308 4.298.466.528.052 1.056.09 1.583.138a26.981 26.981 0 0 1-2.864-2.131Z"></path>
  <path fill="#299ccc" d="M105.179 95.276a56.63 56.63 0 0 0-2.946 4.39H81.828C74.513 91.39 71.756 81.05 70.83 76.372a1.778 1.778 0 0 1 2.09-2.091c5 .988 16.469 4.071 24.967 12.569a74.9 74.9 0 0 1 7.292 8.426Zm0 0"></path>
  <path fill="#efca2b" d="M90.953 99.667c-6.49-7.343-10.521-18.548-11.74-23.745a56.144 56.144 0 0 0-6.293-1.641 1.778 1.778 0 0 0-2.09 2.09c.926 4.68 3.683 15.02 10.998 23.295zm24.459-6.514c7.514-7.513 17.34-10.79 22.974-12.132.533-1.839.9-3.437 1.139-4.65a1.778 1.778 0 0 0-2.09-2.09c-5 .988-16.467 4.071-24.967 12.569a68.884 68.884 0 0 0-10.234 12.816h7.353a76.89 76.89 0 0 1 5.825-6.513z"></path>
  <path fill="#1084ad" d="M128.072 85.488c-.87 1.614-1.818 3.167-2.725 4.753q-1.398 2.349-2.87 4.64c-.98 1.53-1.694 3.263-3.016 4.53a14.544 14.544 0 0 1-4.625 3.292l-.292-.225a14.544 14.544 0 0 1 1.993-5.315c.884-1.604 2.376-2.739 3.601-4.08q1.837-2.01 3.748-3.966c1.3-1.283 2.557-2.599 3.893-3.854zm-44.647-.225c1.336 1.255 2.593 2.571 3.893 3.854q1.91 1.955 3.748 3.967c1.225 1.34 2.717 2.475 3.6 4.079a14.544 14.544 0 0 1 1.994 5.315l-.292.225a14.546 14.546 0 0 1-4.625-3.293c-1.322-1.266-2.035-3-3.016-4.528q-1.472-2.292-2.87-4.64c-.907-1.587-1.855-3.14-2.725-4.754z"></path>
  <path fill="#e25047" d="M73.603 99.667h63.15a4.286 4.286 0 0 1 4.285 4.286v1.671a4.286 4.286 0 0 1-4.286 4.287h-63.15a4.286 4.286 0 0 1-4.285-4.287v-1.671a4.286 4.286 0 0 1 4.286-4.286Zm0 0"></path>
  <path fill="#bc312e" d="M89.896 105.624v-1.671a4.286 4.286 0 0 1 4.286-4.286h-20.58a4.286 4.286 0 0 0-4.285 4.286v1.671a4.286 4.286 0 0 0 4.286 4.287h20.58a4.286 4.286 0 0 1-4.287-4.287Z"></path>
  <path fill="#299ccc" d="M139.52 63.13a8.826 8.826 0 0 0-3.555 3.46 8.826 8.826 0 0 0-3.461-3.554 8.826 8.826 0 0 0 3.554-3.461 8.826 8.826 0 0 0 3.462 3.554Z"></path>
  <path fill="#bc312e" d="M51.268 37.461a8.826 8.826 0 0 0-3.554 3.462 8.826 8.826 0 0 0-3.462-3.555 8.826 8.826 0 0 0 3.555-3.461 8.826 8.826 0 0 0 3.461 3.554Z"></path>
  <path fill="#efca2b" d="M153.72 49.014a19.034 19.034 0 0 0-7.665 7.465 19.034 19.034 0 0 0-7.466-7.665 19.034 19.034 0 0 0 7.666-7.466 19.034 19.034 0 0 0 7.465 7.666Z"></path>
  <path fill="#e25047" d="M71.697 54.082a21.322 21.322 0 0 0-8.587 8.363 21.322 21.322 0 0 0-8.363-8.588 21.322 21.322 0 0 0 8.587-8.362 21.322 21.322 0 0 0 8.363 8.587Z"></path>
  <path fill="#bc312e" d="M163.213 59.603a5.417 5.417 0 0 0-2.181 2.125 5.417 5.417 0 0 0-2.125-2.182 5.417 5.417 0 0 0 2.182-2.124 5.417 5.417 0 0 0 2.124 2.181Z"></path>
  <path fill="#efca2b" d="M54.087 105.631a19.034 19.034 0 0 0-7.665 7.465 19.034 19.034 0 0 0-7.466-7.665 19.034 19.034 0 0 0 7.666-7.466 19.034 19.034 0 0 0 7.465 7.666Z"></path>
  <path fill="#bc312e" d="M63.58 116.22a5.417 5.417 0 0 0-2.181 2.125 5.417 5.417 0 0 0-2.125-2.182 5.417 5.417 0 0 0 2.182-2.124 5.417 5.417 0 0 0 2.124 2.181Z"></path>
  <path fill="#299ccc" d="M60.899 78.803a5.417 5.417 0 0 0-2.182 2.125 5.417 5.417 0 0 0-2.124-2.182 5.417 5.417 0 0 0 2.181-2.124 5.417 5.417 0 0 0 2.125 2.181Z"></path>
  <path fill="#e25047" d="M155.888 117.715a8.826 8.826 0 0 0-3.554 3.462 8.826 8.826 0 0 0-3.462-3.555 8.826 8.826 0 0 0 3.555-3.461 8.826 8.826 0 0 0 3.461 3.554Z"></path>
  <path fill="#299ccc" d="M176.044 106.398a21.861 21.861 0 0 0-8.805 8.574 21.861 21.861 0 0 0-8.574-8.804 21.861 21.861 0 0 0 8.804-8.575 21.861 21.861 0 0 0 8.575 8.805Z"></path>
  <path fill="#efca2b" d="M173.806 132.773a5.417 5.417 0 0 0-2.182 2.124 5.417 5.417 0 0 0-2.124-2.181 5.417 5.417 0 0 0 2.181-2.125 5.417 5.417 0 0 0 2.125 2.182Z"></path>
  <path fill="#bc312e" d="M154.533 90.582a5.417 5.417 0 0 0-2.181 2.125 5.417 5.417 0 0 0-2.125-2.182 5.417 5.417 0 0 0 2.182-2.124 5.417 5.417 0 0 0 2.124 2.181Z"></path>
</svg>
